<svg width="276" height="50" viewBox="0 0 276 50" fill="none" xmlns="http://www.w3.org/2000/svg">
<path d="M66.7592 21.8102C66.7592 23.6689 68.2644 25.1756 70.1211 25.1756H71.9288V5.17495C71.9288 2.3169 69.6143 0 66.7592 0V21.8102Z" fill="white"/>
<path d="M90.884 21.8102C90.884 23.6689 89.3788 25.1756 87.5221 25.1756H85.7144V5.17495C85.7144 2.3169 88.0289 0 90.884 0V21.8102Z" fill="white"/>
<path d="M66.7592 21.8189C66.7592 25.7868 69.4018 29.2678 73.2207 30.3306L78.8216 31.8892L84.4224 30.3306C88.2413 29.2678 90.8839 25.7868 90.8839 21.8189C90.8839 21.8189 83.9912 26.8541 78.8216 26.8541C73.652 26.8541 66.7592 21.8189 66.7592 21.8189Z" fill="white"/>
<path d="M200.35 1.79374e-05C198.447 1.794e-05 196.904 1.53917 196.904 3.4378V4.57596L209.711 4.57596C212.245 4.57596 214.299 2.52724 214.299 1.79181e-05L200.35 1.79374e-05Z" fill="white"/>
<path d="M207.865 31.8892C209.768 31.8892 211.312 30.35 211.312 28.4514V27.3132H198.504C195.971 27.3132 193.917 29.3619 193.917 31.8892H207.865Z" fill="white"/>
<path d="M195.784 13.6668C194.663 12.5279 193.916 11.0279 193.169 9.68065C192.694 8.8227 191.675 7.2223 191.675 7.2223C192.843 5.45202 193.673 3.3709 195.31 2.02375C196.841 0.763928 199.023 1.79969e-05 201.386 1.79181e-05C201.386 1.79181e-05 198.772 4.12704 198.772 7.2223C198.772 10.3176 200.639 11.0279 200.639 11.0279C200.639 11.0279 197.68 12.6362 195.784 13.6668Z" fill="white"/>
<path d="M212.432 18.2224C213.712 19.3613 214.299 20.2919 215.046 21.6391C215.522 22.497 216.54 24.6669 216.54 24.6669C215.372 26.4372 214.502 28.5108 212.803 29.779C211.047 31.0902 208.499 31.8892 206.082 31.8892C206.082 31.8892 210.404 27.6947 209.443 24.6669C208.483 21.6391 207.576 20.8613 207.576 20.8613C208.889 19.8307 211.119 19.253 212.432 18.2224Z" fill="white"/>
<path d="M195.784 13.6668C197.68 12.6362 200.639 11.0279 200.639 11.0279C200.639 11.0279 207.826 15.4128 212.432 18.2224C211.119 19.253 208.889 19.8307 207.576 20.8613C207.576 20.8613 200.266 16.514 195.784 13.6668Z" fill="white"/>
<path d="M0 10.0789C0 8.22028 1.50519 6.71353 3.36192 6.71353H5.16959V26.7142C5.16959 29.5723 2.85509 31.8892 0 31.8892V10.0789Z" fill="white"/>
<path d="M24.1248 10.0789C24.1248 8.22028 22.6196 6.71353 20.7629 6.71353H18.9552V26.7142C18.9552 29.5723 21.2697 31.8892 24.1248 31.8892V10.0789Z" fill="white"/>
<path d="M0 10.0703C0 6.10245 2.64262 2.62137 6.46152 1.55864L12.0624 1.79181e-05L17.6632 1.55864C21.4821 2.62137 24.1248 6.10245 24.1248 10.0703C24.1248 10.0703 17.232 5.03515 12.0624 5.03515C6.89279 5.03515 0 10.0703 0 10.0703Z" fill="white"/>
<path d="M224.237 24.476C224.237 27.2174 226.16 29.5818 228.842 30.1372L237.301 31.8892L244.504 30.3973C247.917 29.6904 250.365 26.6811 250.365 23.1921C250.365 23.1921 242.9 27.2508 237.301 27.2508C231.702 27.2508 224.237 23.1921 224.237 23.1921V24.476Z" fill="white"/>
<path d="M224.237 7.41319C224.237 4.67185 226.16 2.30743 228.842 1.75201L237.301 1.79181e-05L244.504 1.4919C247.917 2.19879 250.365 5.20806 250.365 8.69706C250.365 8.69706 242.9 4.63844 237.301 4.63844C231.702 4.63844 224.237 8.69706 224.237 8.69706V7.41319Z" fill="white"/>
<path d="M224.237 8.58364C224.237 6.72497 225.742 5.21823 227.598 5.21823H228.335V26.0911L224.237 24.4433V8.58364Z" fill="white"/>
<path d="M243.501 16.8143C247.499 16.8143 250.667 13.4384 250.418 9.44481L250.353 8.40715L247.208 6.37784C247.208 6.37784 247.513 10.2375 246.028 11.5961C244.766 12.7518 241.004 12.7804 239.909 12.7631C239.706 12.7599 239.505 12.7557 239.302 12.7557H228.335V16.8143L243.501 16.8143Z" fill="white"/>
<path d="M31.2382 7.52981L35.6029 6.80134V25.4399L31.2382 24.3594V7.52981Z" fill="white"/>
<path d="M31.2382 7.52981C31.2382 4.72257 33.3074 2.30333 36.1877 1.74317L45.1506 1.79181e-05L52.916 1.51025C56.4931 2.20595 59.0631 5.21057 59.0631 8.69706L54.7347 6.81517C51.9483 5.75384 48.2764 4.63844 45.1506 4.63844C42.0385 4.63844 38.3848 5.74417 35.6029 6.80134L31.2382 7.52981Z" fill="white"/>
<path d="M31.2382 24.3594C31.2382 27.1666 33.3074 29.5859 36.1877 30.146L45.1506 31.8892L52.916 30.3789C56.4931 29.6832 59.0631 26.8128 59.0631 23.3263L54.7347 25.146C51.9483 26.1722 48.2764 27.2507 45.1506 27.2507C42.0385 27.2507 38.3848 26.325 35.6029 25.4399L31.2382 24.3594Z" fill="white"/>
<path d="M59.0631 8.69706L54.7347 6.81517V25.146L59.0631 23.3263V8.69706Z" fill="white"/>
<path d="M47.964 4.37001H42.7944V28.6927C42.7944 30.1216 43.9515 31.28 45.379 31.28C46.8066 31.28 47.964 30.1215 47.964 28.6923V4.37001Z" fill="white"/>
<path d="M99.7775 5.88009C99.7845 5.56591 100.041 5.31487 100.355 5.31487H104.526V26.5555C104.526 29.5012 102.141 31.8892 99.1981 31.8892L99.7775 5.88009Z" fill="white"/>
<path d="M98.014 1.79181e-05C98.014 1.79181e-05 98.606 1.59434 98.606 2.65745C98.606 3.23667 98.4303 3.97358 98.2703 4.52441C98.1579 4.91132 98.4423 5.31488 98.8448 5.31488H110.732C113.517 5.31488 115.775 3.05476 115.775 0.266757V1.71437e-05L108.533 1.74594e-05C107.444 1.75069e-05 106.359 0.126334 105.284 0.302882C104.401 0.447943 103.314 0.590558 102.454 0.590558C100.705 0.590558 98.014 1.79181e-05 98.014 1.79181e-05Z" fill="white"/>
<path d="M259.031 5.88009C259.038 5.56591 259.294 5.31487 259.608 5.31487H263.779V26.5555C263.779 29.5012 261.394 31.8892 258.451 31.8892L259.031 5.88009Z" fill="white"/>
<path d="M257.267 1.79181e-05C257.267 1.79181e-05 257.859 1.59434 257.859 2.65745C257.859 3.23667 257.683 3.97358 257.523 4.52441C257.411 4.91132 257.695 5.31488 258.098 5.31488H269.985C272.77 5.31488 275.028 3.05476 275.028 0.266757V1.71437e-05L267.786 1.74594e-05C266.697 1.75069e-05 265.612 0.126335 264.537 0.302882C263.654 0.447943 262.567 0.590558 261.707 0.590558C259.958 0.590558 257.267 1.79181e-05 257.267 1.79181e-05Z" fill="white"/>
<path d="M138.394 49.0147V43.7L132.423 43.7C130.162 43.7 128.329 45.7126 128.329 49.0148L138.394 49.0147Z" fill="white"/>
<path d="M146.09 3.4378C146.09 1.53917 147.633 1.79181e-05 149.536 1.79181e-05H150.234V26.5743H146.09V3.4378Z" fill="white"/>
<path d="M150.177 26.5743L150.234 40.5503C150.234 40.5503 147.753 44.4898 145.409 46.1426C143.064 47.7954 138.394 49.0147 138.394 49.0147V43.7C138.394 43.7 143.397 43.5722 145.464 38.1345C147.531 32.6969 146.053 26.5743 146.053 26.5743H150.177Z" fill="white"/>
<path d="M122.409 7.52981L126.774 6.80134V25.4399L122.409 24.3594V7.52981Z" fill="white"/>
<path d="M122.409 7.52981C122.409 4.72257 124.478 2.30333 127.358 1.74317L136.321 1.79181e-05L144.087 1.51025C147.664 2.20595 150.234 5.21057 150.234 8.69706L145.906 6.81517C143.119 5.75384 139.447 4.63844 136.321 4.63844C133.209 4.63844 129.556 5.74417 126.774 6.80134L122.409 7.52981Z" fill="white"/>
<path d="M122.409 24.3594C122.409 27.1666 124.478 29.5859 127.358 30.146L136.321 31.8892L144.087 30.3789C147.664 29.6832 150.234 26.8128 150.234 23.3263L145.906 25.146C143.119 26.1722 139.447 27.2507 136.321 27.2507C133.209 27.2507 129.556 26.325 126.774 25.4399L122.409 24.3594Z" fill="white"/>
<path d="M150.234 8.69706L145.906 6.81517V25.146L150.234 23.3263V8.69706Z" fill="white"/>
<path d="M183.387 2.22447C183.387 0.995937 181.929 1.79181e-05 180.13 1.79181e-05H179.243V31.4212C179.243 32.9842 182.282 34.2513 184.571 34.2513C184.571 34.2513 183.387 32.5406 183.387 31.2986C183.387 30.7081 183.387 30.7081 183.387 30.7081V2.22447Z" fill="white"/>
<path d="M155.562 7.52981L159.927 6.80134V25.4399L155.562 24.3594V7.52981Z" fill="white"/>
<path d="M155.562 7.52981C155.562 4.72257 157.631 2.30333 160.512 1.74317L169.475 1.79181e-05L177.24 1.51025C180.817 2.20595 183.387 5.21057 183.387 8.69706L179.059 6.81517C176.272 5.75384 172.6 4.63844 169.475 4.63844C166.362 4.63844 162.709 5.74417 159.927 6.80134L155.562 7.52981Z" fill="white"/>
<path d="M155.562 24.3594C155.562 27.1666 157.631 29.5859 160.512 30.146L169.475 31.8892L177.24 30.3789C180.817 29.6832 183.387 26.8128 183.387 23.3263L179.059 25.146C176.272 26.1722 172.6 27.2507 169.475 27.2507C166.362 27.2507 162.709 26.325 159.927 25.4399L155.562 24.3594Z" fill="white"/>
<path d="M183.387 8.69706L179.059 6.81517V25.146L183.387 23.3263V8.69706Z" fill="white"/>
</svg>
